<svg width="100" height="100" viewBox="0 0 100 100" fill="none" xmlns="http://www.w3.org/2000/svg">
  <circle cx="50" cy="50" r="40" fill="#282C34"/> 

  <path d="M50 10 C69.8822 10 86 26.1178 86 46 L86 54 C86 73.8822 69.8822 90 50 90 C30.1178 90 14 73.8822 14 54 L14 46 C14 26.1178 30.1178 10 50 10 Z" stroke="#61DAFB" stroke-width="4"/>
  <path d="M14 50 C14 30.1178 30.1178 14 50 14 L50 86 C30.1178 86 14 69.8822 14 50 Z" stroke="#61DAFB" stroke-width="4"/>
  <path d="M50 14 C69.8822 14 86 30.1178 86 50 C86 69.8822 69.8822 86 50 86 C30.1178 86 14 69.8822 14 50 L50 14 Z" stroke="#61DAFB" stroke-width="4"/>

  <text x="50%" y="55%" font-family="Arial, sans-serif" font-size="32" font-weight="bold" fill="#3178C6" text-anchor="middle" dominant-baseline="middle">TS</text>

  <polygon points="50 30, 70 50, 50 70, 30 50" fill="#3178C6" opacity="0.2" /> 
</svg>